<?xml version="1.0" ?><!DOCTYPE svg  PUBLIC '-//W3C//DTD SVG 1.1//EN'  'http://www.w3.org/Graphics/SVG/1.1/DTD/svg11.dtd'><svg enable-background="new 0 0 512 512" height="512px" id="Layer_1" version="1.1" viewBox="0 0 512 512" width="512px" xml:space="preserve" xmlns="http://www.w3.org/2000/svg" xmlns:xlink="http://www.w3.org/1999/xlink"><path d="M174.235,39.521h337.763v104.637H174.235V39.521z M174.235,309.099h337.763V204.469H174.235V309.099z M174.235,474.046H512  V369.414H174.235V474.046z M109.563,92.73c0-30.255-24.527-54.776-54.783-54.776C24.528,37.954,0,62.476,0,92.73  c0,30.259,24.528,54.781,54.781,54.781C85.036,147.511,109.563,122.99,109.563,92.73 M109.563,250.267  c0-30.251-24.527-54.781-54.783-54.781C24.528,195.486,0,220.015,0,250.267c0,30.254,24.528,54.781,54.781,54.781  C85.036,305.048,109.563,280.522,109.563,250.267 M109.563,418.857c0-30.254-24.527-54.779-54.783-54.779  C24.528,364.078,0,388.604,0,418.857s24.528,54.781,54.781,54.781C85.036,473.639,109.563,449.111,109.563,418.857"/></svg>